# xmcd
#
# Track frame offsets:
#	150
#	19290
#	40855
#	65280
#	89318
#	116848
#	137762
#	164544
#	189423
#	221513
#	250863
#
# Disc length: 3649
#
# Revision: 1
# Processed by: cddbd v1.5.1PL0 Copyright (c) Steve Scherf et al.
# Submitted via: CDex 1.51
# Normalized: r0:TRMNUM
#
DISCID=990e3f0b
DTITLE=Road Work Ahead - On the Road Again
DYEAR=2004
DGENRE=Jazz
TTITLE0=Thea's Laughter
TTITLE1=Samba for Shelly
TTITLE2=euterpe
TTITLE3=Bird's Blues (Relaxin' at Camarillo-Perhaps-Cheryl)
TTITLE4=In The Garden
TTITLE5=As it is, As You Are
TTITLE6=Modinha
TTITLE7=Just a little Nine Eight
TTITLE8=Broken Ties
TTITLE9=A Nightingale Sang in Berkeley Square
TTITLE10=Bark, Bark
EXTD=YEAR: 2004
EXTT0=
EXTT1=
EXTT2=
EXTT3=
EXTT4=
EXTT5=
EXTT6=
EXTT7=
EXTT8=
EXTT9=
EXTT10=
PLAYORDER=
